<?xml version="1.0" encoding="UTF-8"?>
<!DOCTYPE svg PUBLIC "-//W3C//DTD SVG 1.1//EN" "http://www.w3.org/Graphics/SVG/1.1/DTD/svg11.dtd">
<!-- Creator: CorelDRAW 2018 (64 Bit Versão de avaliação) -->
<svg xmlns="http://www.w3.org/2000/svg" xml:space="preserve" width="300px" height="220px" version="1.1" style="shape-rendering:geometricPrecision; text-rendering:geometricPrecision; image-rendering:optimizeQuality; fill-rule:evenodd; clip-rule:evenodd"
viewBox="0 0 300 220"
 xmlns:xlink="http://www.w3.org/1999/xlink">
 <defs>
  <style type="text/css">
   <![CDATA[
    .fil0 {fill:white}
    .fil1 {fill:url(#id0)}
    .fil3 {fill:url(#id1)}
    .fil2 {fill:url(#id2)}
   ]]>
  </style>
  <linearGradient id="id0" gradientUnits="userSpaceOnUse" x1="219.3" y1="56.57" x2="261.35" y2="56.57">
   <stop offset="0" style="stop-opacity:1; stop-color:#FF4000"/>
   <stop offset="1" style="stop-opacity:1; stop-color:#F0047F"/>
  </linearGradient>
  <linearGradient id="id1" gradientUnits="userSpaceOnUse" xlink:href="#id0" x1="244.53" y1="77.44" x2="252.74" y2="77.44">
  </linearGradient>
  <linearGradient id="id2" gradientUnits="userSpaceOnUse" xlink:href="#id0" x1="228.11" y1="77.44" x2="236.32" y2="77.44">
  </linearGradient>
 </defs>
 <g id="Camada_x0020_1">
  <metadata id="CorelCorpID_0Corel-Layer"/>
  <g id="_2361501624640">
   <g>
    <polygon class="fil0" points="59.07,43.27 59.07,97.28 42.02,97.28 42.02,43.27 25.05,43.27 25.05,28.13 76.04,28.13 76.04,43.27 "/>
    <path class="fil0" d="M100.67 97.28l0 -4.29c-1.64,1.64 -3.28,2.83 -4.92,3.56 -1.65,0.82 -3.93,1.18 -6.75,1.18 -2.65,0 -5.02,-0.36 -7.12,-1.18 -2.1,-0.83 -3.92,-1.92 -5.38,-3.47 -1.46,-1.46 -2.65,-3.28 -3.38,-5.38 -0.82,-2.1 -1.18,-4.38 -1.18,-6.85 0,-1.91 0.36,-3.83 1,-5.65 0.64,-1.83 1.73,-3.47 3.19,-4.84 1.46,-1.37 3.29,-2.55 5.57,-3.37 2.28,-0.82 4.92,-1.28 8.03,-1.28l10.58 0 0 -1.37c0,-2.37 -0.64,-4.1 -1.83,-5.02 -1.27,-1 -3.28,-1.45 -6.02,-1.45 -2.1,0 -3.65,0.27 -4.74,0.82 -1.1,0.54 -2.28,1.46 -3.56,2.73l-9.94 -9.94c1.37,-1.37 2.64,-2.46 4.01,-3.38 1.28,-0.91 2.74,-1.55 4.2,-2.09 1.55,-0.55 3.19,-0.92 4.92,-1.19 1.74,-0.18 3.74,-0.37 5.93,-0.37 7.48,0 13.23,1.56 17.15,4.66 3.93,3.1 5.84,7.84 5.84,14.32l0 33.93 -15.6 0.01 0 -0.09zm-0.45 -20.99l-8.03 0c-1.55,0 -2.83,0.37 -3.65,1.19 -0.91,0.82 -1.37,1.82 -1.37,3.01 0,1.19 0.46,2.19 1.28,3.1 0.91,0.91 2.19,1.28 3.92,1.28 1.55,0 2.74,-0.09 3.65,-0.37 0.91,-0.18 1.73,-0.73 2.64,-1.64 1.01,-1 1.55,-2.73 1.55,-5.29l0.01 -1.28z"/>
    <path class="fil0" d="M139.26 97.28c-2.92,0 -5.38,-0.46 -7.48,-1.37 -2.01,-0.92 -3.74,-2.19 -5.02,-3.65 -1.28,-1.46 -2.28,-3.1 -2.83,-4.93 -0.63,-1.82 -0.91,-3.65 -0.91,-5.47l0 -53.73 15.96 0 0 52.54c0,2.1 1.1,3.19 3.2,3.19l5.56 0 0 13.42 -8.48 0z"/>
    <polygon class="fil0" points="182.68,97.28 171.83,78.12 168.72,81.49 168.72,97.28 152.76,97.28 152.76,28.13 168.72,28.13 168.72,63.34 182.77,45.1 201.93,45.09 182.68,66.81 202.38,97.46 182.68,97.46 "/>
    <path class="fil0" d="M147.01 153.92c0,3.29 -0.54,6.21 -1.64,8.76 -1.09,2.56 -2.64,4.66 -4.56,6.39 -1.92,1.73 -4.2,3.1 -6.84,3.92 -2.65,0.91 -5.48,1.28 -8.58,1.28l-30.1 0 0 -69.24 28.64 0c3.65,0 6.85,0.46 9.49,1.46 2.74,1 5.02,2.37 6.93,4.1 1.92,1.74 3.29,3.84 4.2,6.3 0.91,2.46 1.37,5.2 1.37,8.12 0,1.91 -0.27,3.65 -0.91,5.29 -0.55,1.55 -1.28,2.92 -2.1,4.01 -0.82,1.1 -1.64,2.1 -2.55,2.74 -0.92,0.73 -1.56,1.28 -2.1,1.64 0.73,0.46 1.55,1 2.55,1.73 1.01,0.73 1.92,1.65 2.83,2.83 0.91,1.19 1.64,2.56 2.28,4.29 0.82,1.91 1.09,3.92 1.09,6.38zm-17.97 -27.82c0,-1.37 -0.45,-2.64 -1.27,-3.83 -0.92,-1.19 -2.47,-1.82 -4.84,-1.82l-10.58 0 0 11.31 10.58 0c2.37,0 3.92,-0.64 4.83,-1.83 0.83,-1.28 1.28,-2.55 1.28,-3.83zm1.01 26.91c0,-1.46 -0.46,-2.83 -1.37,-4.1 -0.92,-1.28 -2.56,-1.92 -4.84,-1.92l-11.49 0 0 12.13 11.49 0c2.37,0 3.92,-0.63 4.84,-1.91 0.91,-1.37 1.37,-2.74 1.37,-4.2z"/>
    <path class="fil0" d="M182.59 174.36l0 -4.29c-1.64,1.64 -3.56,2.83 -5.75,3.65 -2.19,0.82 -4.38,1.18 -6.38,1.18 -2.46,0 -4.65,-0.36 -6.66,-1.18 -2.01,-0.82 -3.65,-1.92 -5.11,-3.28 -2.28,-2.29 -3.74,-4.66 -4.29,-7.12 -0.64,-2.46 -0.91,-5.11 -0.91,-7.84l0 -33.39 15.96 0 0 31.29c0,1.46 0.19,2.73 0.64,3.65 0.46,0.91 1.01,1.64 1.74,2.19 0.63,0.54 1.36,0.91 2.09,1.09 0.73,0.18 1.37,0.28 1.92,0.28 0.55,0 1.19,-0.1 1.91,-0.28 0.73,-0.18 1.46,-0.55 2.1,-1.09 0.64,-0.55 1.28,-1.28 1.74,-2.19 0.45,-0.92 0.63,-2.19 0.63,-3.65l0.01 -31.29 15.96 0 0 52.27 -15.6 0z"/>
    <path class="fil0" d="M229.39 180.56c-1.01,2.92 -2.37,5.2 -4.11,6.93 -1.55,1.65 -3.28,2.83 -5.29,3.47 -2.01,0.64 -4.11,0.91 -6.48,0.91l-6.02 0 0 -14.41 3.38 0c1.46,0 2.55,-0.27 3.37,-0.73 0.83,-0.46 1.46,-1.55 2.01,-3.19l1.46 -4.38 -17.42 -47.07 16.69 0 8.85 27.09 8.48 -27.09 16.7 0 -21.62 58.47z"/>
   </g>
   <g>
    <path class="fil0" d="M257.12 32.05c-15.6,-8.21 -35.12,-3.01 -44.52,11.95 -8.48,13.5 -6.48,30.83 4.29,41.51 11.22,11.22 3.1,20.52 3.1,20.52 0,0 17.97,-1.37 27.55,-4.92 16.05,-6.02 23.17,-18.98 25.91,-28.37 4.56,-15.51 -1.37,-32.75 -16.33,-40.69z"/>
    <g>
     <path class="fil1" d="M242.34 72.55c-3.92,0 -7.94,0 -11.86,0 -1.73,0 -2.64,-0.82 -2.92,-2.55 -0.91,-7.03 -1.91,-14.05 -2.83,-21.16 -0.09,-0.92 -0.45,-1.65 -1.46,-2.1 -3.46,-1.73 0.46,0.45 -3.01,-1.28 -1.27,-0.64 -1.73,-1.82 -1.18,-3.01 0.54,-1.09 1.82,-1.46 3.1,-0.82 4.2,2.1 0.91,0.27 5.11,2.37 0.91,0.46 1.37,1.1 1.46,2.19 0.09,1.37 0.36,2.83 0.54,4.2 0.09,0.82 0.37,1.09 1.19,1.09 9.3,0 18.61,0 27.91,0 0.28,0 0.55,0 0.83,0 2.55,0 3.46,1.19 2.64,3.65 -1.73,5.2 -3.47,10.4 -5.29,15.6 -0.46,1.28 -1.19,1.82 -2.65,1.82 -3.64,0 -7.56,0 -11.58,0zm12.5 -8.85c-0.46,0 -0.73,-0.09 -1,-0.09 -2.47,0 -5.02,0 -7.48,0 -2.83,0 -5.66,0 -8.58,0 -1.09,0 -1.92,-0.64 -2.01,-1.64 -0.09,-1.18 0.64,-2 2.01,-2 3.1,0 6.29,0 9.4,0 2.64,0 5.38,0 8.02,0 0.28,0 0.73,-0.19 0.82,-0.37 0.46,-1.28 0.83,-2.65 1.19,-4.01 -9.12,0 -18.06,0 -27.09,0 0.54,4.1 1,8.21 1.55,12.22 1.91,0 3.74,0 5.56,0 5.2,0 10.4,0 15.51,0 0.64,0 0.91,-0.18 1,-0.73 0.37,-1.09 0.73,-2.1 1.1,-3.38z"/>
     <path class="fil2" d="M236.69 78.12c0,2.19 -1.83,4.01 -4.11,4.01 -2.19,0 -4.01,-1.82 -4.01,-4.1 0,-2.29 1.82,-4.11 4.1,-4.02 2.28,0.09 4.02,1.92 4.02,4.11z"/>
     <path class="fil3" d="M253.38 78.12c0,2.28 -1.83,4.01 -4.11,4.01 -2.19,0 -4.01,-1.91 -4.01,-4.1 0,-2.19 1.92,-4.11 4.11,-4.02 2.28,0.09 4.01,1.92 4.01,4.11z"/>
    </g>
   </g>
   <g>
    <path class="fil0" d="M73.58 173.63l-6.39 -7.76c-0.64,0.64 -1.55,1.37 -2.73,2.38 -1.19,1 -2.56,1.82 -4.29,2.73 -1.73,0.82 -3.65,1.64 -5.93,2.28 -2.19,0.64 -4.65,1.01 -7.39,1.01 -3.01,0 -5.84,-0.46 -8.3,-1.37 -2.46,-0.91 -4.65,-2.19 -6.48,-3.83 -1.82,-1.65 -3.19,-3.65 -4.19,-6.02 -1.01,-2.28 -1.46,-4.84 -1.46,-7.67 0,-2.55 0.45,-4.92 1.27,-6.84 0.82,-2.01 1.92,-3.74 3.38,-5.29 1.46,-1.55 3.01,-3.01 4.83,-4.38 1.83,-1.37 3.65,-2.64 5.66,-3.92 -0.82,-1.1 -1.73,-2.1 -2.65,-3.28 -0.91,-1.1 -1.64,-2.29 -2.37,-3.47 -0.64,-1.19 -1.27,-2.46 -1.64,-3.83 -0.46,-1.37 -0.64,-2.74 -0.64,-4.11 0,-1.82 0.37,-3.56 1.1,-5.2 0.73,-1.64 1.64,-3.01 2.82,-4.19 1.19,-1.19 2.65,-2.1 4.29,-2.74 1.64,-0.64 3.38,-1 5.2,-1 1.82,0 3.56,0.36 5.2,1 1.64,0.64 3.1,1.64 4.29,2.83 1.18,1.18 2.19,2.64 2.83,4.19 0.73,1.65 1.09,3.38 1.09,5.2 0,2.74 -0.73,5.02 -2.19,6.94 -1.46,1.91 -3.28,3.55 -5.38,4.92 -0.09,0.09 -0.37,0.28 -0.91,0.64 -0.55,0.37 -1.28,0.82 -2.01,1.37 -0.82,0.55 -1.46,1 -1.92,1.28l18.89 22.89c0.73,-1.09 1.37,-2.19 1.82,-3.28 0.46,-1.09 0.91,-2.19 1.19,-3.47 0.27,-1.27 0.54,-2.64 0.64,-4.19 0.09,-1.55 0.18,-3.38 0.18,-5.48l4.93 0c0,4.11 -0.46,7.85 -1.28,11.22 -0.82,3.38 -2.37,6.3 -4.47,8.94l9.48 11.5 -6.47 0zm-29.19 -35.4c-1.55,1.1 -3.1,2.1 -4.66,3.29 -1.55,1.09 -2.91,2.28 -4.19,3.65 -1.28,1.27 -2.28,2.73 -3.01,4.37 -0.73,1.65 -1.19,3.47 -1.19,5.57 0,2.19 0.37,4.1 1.1,5.93 0.73,1.82 1.82,3.37 3.19,4.65 1.37,1.28 3.01,2.28 4.83,3.01 1.92,0.73 4.02,1.1 6.3,1.1 2.64,0 5.38,-0.46 8.3,-1.46 2.83,-0.92 6.02,-2.92 9.3,-5.93l-19.97 -24.18zm9.3 -24.17c-1.64,-1.64 -3.65,-2.46 -6.11,-2.46 -2.37,0 -4.38,0.82 -6.02,2.37 -1.64,1.64 -2.37,3.65 -2.37,6.11 0,0.82 0.09,1.64 0.27,2.46 0.18,0.73 0.55,1.65 1.01,2.56 0.45,0.91 1.18,2.01 2,3.1 0.82,1.19 1.92,2.46 3.2,4.01 0.36,-0.27 0.91,-0.54 1.55,-1 0.64,-0.46 1.18,-0.82 1.55,-1.1 0.36,-0.27 0.64,-0.45 0.73,-0.54 1.73,-1.19 3.28,-2.46 4.65,-3.92 1.37,-1.46 2.01,-3.2 2.01,-5.39 -0.01,-2.46 -0.83,-4.56 -2.47,-6.2z"/>
   </g>
  </g>
 </g>
</svg>
