<?xml version="1.0" encoding="utf-8"?>
<!-- Generator: Adobe Illustrator 22.0.0, SVG Export Plug-In . SVG Version: 6.00 Build 0)  -->
<svg version="1.1" id="Layer_1" xmlns="http://www.w3.org/2000/svg" xmlns:xlink="http://www.w3.org/1999/xlink" x="0px" y="0px"
	 viewBox="0 0 841.9 595.3" style="enable-background:new 0 0 841.9 595.3;" xml:space="preserve">
<style type="text/css">
	.st0{fill:#999999;}
	.st1{fill:#F4356E;}
	.st2{fill:url(#SVGID_1_);}
	.st3{fill:#FFFFFF;}
	.st4{fill:url(#SVGID_2_);}
	.st5{fill:url(#SVGID_3_);}
	.st6{fill:url(#SVGID_4_);}
	.st7{fill:url(#SVGID_5_);}
	.st8{fill:url(#SVGID_6_);}
	.st9{fill:url(#SVGID_7_);}
	.st10{fill:url(#SVGID_8_);}
</style>
<g>
	<path class="st0" d="M317.4,89.9v59.2h-18.6V89.9h-18.6V73.2H336v16.6H317.4z"/>
	<path class="st0" d="M363,149.1v-4.7c-1.8,1.8-3.6,3.1-5.4,3.9c-1.8,0.9-4.3,1.3-7.4,1.3c-2.9,0-5.5-0.4-7.8-1.3
		c-2.3-0.9-4.3-2.1-5.9-3.8c-1.6-1.6-2.9-3.6-3.7-5.9c-0.9-2.3-1.3-4.8-1.3-7.5c0-2.1,0.4-4.2,1.1-6.2s1.9-3.8,3.5-5.3
		c1.6-1.5,3.6-2.8,6.1-3.7c2.5-0.9,5.4-1.4,8.8-1.4h11.6V113c0-2.6-0.7-4.5-2-5.5c-1.4-1.1-3.6-1.6-6.6-1.6c-2.3,0-4,0.3-5.2,0.9
		c-1.2,0.6-2.5,1.6-3.9,3l-10.9-10.9c1.5-1.5,2.9-2.7,4.4-3.7c1.4-1,3-1.7,4.6-2.3c1.7-0.6,3.5-1,5.4-1.3c1.9-0.2,4.1-0.4,6.5-0.4
		c8.2,0,14.5,1.7,18.8,5.1c4.3,3.4,6.4,8.6,6.4,15.7v37.2H363z M362.5,126.1h-8.8c-1.7,0-3.1,0.4-4,1.3c-1,0.9-1.5,2-1.5,3.3
		c0,1.3,0.5,2.4,1.4,3.4c1,1,2.4,1.4,4.3,1.4c1.7,0,3-0.1,4-0.4c1-0.2,1.9-0.8,2.9-1.8c1.1-1.1,1.7-3,1.7-5.8V126.1z"/>
	<path class="st0" d="M405.3,149.1c-3.2,0-5.9-0.5-8.2-1.5c-2.2-1-4.1-2.4-5.5-4c-1.4-1.6-2.5-3.4-3.1-5.4c-0.7-2-1-4-1-6V73.2h17.5
		v57.6c0,2.3,1.2,3.5,3.5,3.5h6.1v14.7H405.3z"/>
	<path class="st0" d="M452.9,149.1l-11.9-21l-3.4,3.7v17.3h-17.5V73.2h17.5v38.6l15.4-20h21l-21.1,23.8l21.6,33.6H452.9z"/>
	<path class="st0" d="M413.8,211.2c0,3.6-0.6,6.8-1.8,9.6c-1.2,2.8-2.9,5.1-5,7c-2.1,1.9-4.6,3.4-7.5,4.3c-2.9,1-6,1.4-9.4,1.4h-33
		v-75.9h31.4c4,0,7.5,0.5,10.4,1.6c3,1.1,5.5,2.6,7.6,4.5c2.1,1.9,3.6,4.2,4.6,6.9c1,2.7,1.5,5.7,1.5,8.9c0,2.1-0.3,4-1,5.8
		c-0.6,1.7-1.4,3.2-2.3,4.4c-0.9,1.2-1.8,2.3-2.8,3c-1,0.8-1.7,1.4-2.3,1.8c0.8,0.5,1.7,1.1,2.8,1.9c1.1,0.8,2.1,1.8,3.1,3.1
		c1,1.3,1.8,2.8,2.5,4.7C413.5,206.2,413.8,208.5,413.8,211.2z M394.1,180.6c0-1.5-0.5-2.9-1.4-4.2c-1-1.3-2.7-2-5.3-2h-11.6v12.4
		h11.6c2.6,0,4.3-0.7,5.3-2C393.7,183.5,394.1,182.1,394.1,180.6z M395.2,210.1c0-1.6-0.5-3.1-1.5-4.5c-1-1.4-2.8-2.1-5.3-2.1h-12.6
		v13.3h12.6c2.6,0,4.3-0.7,5.3-2.1C394.7,213.3,395.2,211.8,395.2,210.1z"/>
	<path class="st0" d="M452.8,233.6v-4.7c-1.8,1.8-3.9,3.1-6.3,4c-2.4,0.9-4.8,1.3-7,1.3c-2.7,0-5.1-0.4-7.3-1.3
		c-2.2-0.9-4-2.1-5.6-3.6c-2.5-2.5-4.1-5.1-4.7-7.8c-0.7-2.7-1-5.6-1-8.6v-36.7h17.5v34.3c0,1.6,0.2,3,0.7,4c0.5,1,1.1,1.8,1.9,2.4
		c0.7,0.6,1.5,1,2.3,1.2c0.8,0.2,1.5,0.3,2.1,0.3c0.6,0,1.3-0.1,2.1-0.3c0.8-0.2,1.6-0.6,2.3-1.2c0.7-0.6,1.4-1.4,1.9-2.4
		c0.5-1,0.7-2.4,0.7-4v-34.3h17.5v57.3H452.8z"/>
	<path class="st0" d="M504.1,240.4c-1.1,3.2-2.6,5.7-4.5,7.6c-1.7,1.8-3.6,3.1-5.8,3.8c-2.2,0.7-4.5,1-7.1,1h-6.6V237h3.7
		c1.6,0,2.8-0.3,3.7-0.8c0.9-0.5,1.6-1.7,2.2-3.5l1.6-4.8l-19.1-51.7h18.3l9.7,29.7l9.3-29.7h18.3L504.1,240.4z"/>
</g>
<g>
	<path class="st1" d="M333.3,232.8l-7-8.5c-0.7,0.7-1.7,1.5-3,2.6c-1.3,1.1-2.8,2-4.7,3c-1.9,0.9-4,1.8-6.5,2.5
		c-2.4,0.7-5.1,1.1-8.1,1.1c-3.3,0-6.4-0.5-9.1-1.5c-2.7-1-5.1-2.4-7.1-4.2c-2-1.8-3.5-4-4.6-6.6c-1.1-2.5-1.6-5.3-1.6-8.4
		c0-2.8,0.5-5.4,1.4-7.5c0.9-2.2,2.1-4.1,3.7-5.8c1.6-1.7,3.3-3.3,5.3-4.8c2-1.5,4-2.9,6.2-4.3c-0.9-1.2-1.9-2.3-2.9-3.6
		c-1-1.2-1.8-2.5-2.6-3.8c-0.7-1.3-1.4-2.7-1.8-4.2c-0.5-1.5-0.7-3-0.7-4.5c0-2,0.4-3.9,1.2-5.7c0.8-1.8,1.8-3.3,3.1-4.6
		c1.3-1.3,2.9-2.3,4.7-3c1.8-0.7,3.7-1.1,5.7-1.1s3.9,0.4,5.7,1.1c1.8,0.7,3.4,1.8,4.7,3.1c1.3,1.3,2.4,2.9,3.1,4.6
		c0.8,1.8,1.2,3.7,1.2,5.7c0,3-0.8,5.5-2.4,7.6c-1.6,2.1-3.6,3.9-5.9,5.4c-0.1,0.1-0.4,0.3-1,0.7c-0.6,0.4-1.4,0.9-2.2,1.5
		c-0.9,0.6-1.6,1.1-2.1,1.4l20.7,25.1c0.8-1.2,1.5-2.4,2-3.6c0.5-1.2,1-2.4,1.3-3.8c0.3-1.4,0.6-2.9,0.7-4.6c0.1-1.7,0.2-3.7,0.2-6
		h5.4c0,4.5-0.5,8.6-1.4,12.3c-0.9,3.7-2.6,6.9-4.9,9.8l10.4,12.6H333.3z M301.3,193.9c-1.7,1.2-3.4,2.3-5.1,3.6
		c-1.7,1.2-3.2,2.5-4.6,4c-1.4,1.4-2.5,3-3.3,4.8c-0.8,1.8-1.3,3.8-1.3,6.1c0,2.4,0.4,4.5,1.2,6.5c0.8,2,2,3.7,3.5,5.1
		c1.5,1.4,3.3,2.5,5.3,3.3c2.1,0.8,4.4,1.2,6.9,1.2c2.9,0,5.9-0.5,9.1-1.6c3.1-1,6.6-3.2,10.2-6.5L301.3,193.9z M311.5,167.4
		c-1.8-1.8-4-2.7-6.7-2.7c-2.6,0-4.8,0.9-6.6,2.6c-1.8,1.8-2.6,4-2.6,6.7c0,0.9,0.1,1.8,0.3,2.7c0.2,0.8,0.6,1.8,1.1,2.8
		c0.5,1,1.3,2.2,2.2,3.4c0.9,1.3,2.1,2.7,3.5,4.4c0.4-0.3,1-0.6,1.7-1.1c0.7-0.5,1.3-0.9,1.7-1.2c0.4-0.3,0.7-0.5,0.8-0.6
		c1.9-1.3,3.6-2.7,5.1-4.3c1.5-1.6,2.2-3.5,2.2-5.9C314.2,171.6,313.3,169.2,311.5,167.4z"/>
</g>
<linearGradient id="SVGID_1_" gradientUnits="userSpaceOnUse" x1="557.8807" y1="170.9807" x2="199.1323" y2="917.6257">
	<stop  offset="0" style="stop-color:#FF4000"/>
	<stop  offset="1" style="stop-color:#F0047F"/>
</linearGradient>
<rect x="0.3" y="316.1" class="st2" width="841.6" height="279.2"/>
<g>
	<path class="st3" d="M132.7,384.6v59.2H114v-59.2H95.4V368h55.9v16.6H132.7z"/>
	<path class="st3" d="M178.3,443.8v-4.7c-1.8,1.8-3.6,3.1-5.4,3.9c-1.8,0.9-4.3,1.3-7.4,1.3c-2.9,0-5.5-0.4-7.8-1.3
		c-2.3-0.9-4.3-2.1-5.9-3.8c-1.6-1.6-2.9-3.6-3.7-5.9c-0.9-2.3-1.3-4.8-1.3-7.5c0-2.1,0.4-4.2,1.1-6.2c0.7-2,1.9-3.8,3.5-5.3
		c1.6-1.5,3.6-2.8,6.1-3.7c2.5-0.9,5.4-1.4,8.8-1.4h11.6v-1.5c0-2.6-0.7-4.5-2-5.5c-1.4-1.1-3.6-1.6-6.6-1.6c-2.3,0-4,0.3-5.2,0.9
		c-1.2,0.6-2.5,1.6-3.9,3l-10.9-10.9c1.5-1.5,2.9-2.7,4.4-3.7c1.4-1,3-1.7,4.6-2.3c1.7-0.6,3.5-1,5.4-1.3c1.9-0.2,4.1-0.4,6.5-0.4
		c8.2,0,14.5,1.7,18.8,5.1c4.3,3.4,6.4,8.6,6.4,15.7v37.2H178.3z M177.8,420.8H169c-1.7,0-3.1,0.4-4,1.3c-1,0.9-1.5,2-1.5,3.3
		c0,1.3,0.5,2.4,1.4,3.4c1,1,2.4,1.4,4.3,1.4c1.7,0,3-0.1,4-0.4c1-0.2,1.9-0.8,2.9-1.8c1.1-1.1,1.7-3,1.7-5.8V420.8z"/>
	<path class="st3" d="M220.6,443.8c-3.2,0-5.9-0.5-8.2-1.5c-2.2-1-4.1-2.4-5.5-4c-1.4-1.6-2.5-3.4-3.1-5.4c-0.7-2-1-4-1-6V368h17.5
		v57.6c0,2.3,1.2,3.5,3.5,3.5h6.1v14.7H220.6z"/>
	<path class="st3" d="M268.2,443.8l-11.9-21l-3.4,3.7v17.3h-17.5V368h17.5v38.6l15.4-20h21l-21.1,23.8l21.6,33.6H268.2z"/>
	<path class="st3" d="M229.1,505.9c0,3.6-0.6,6.8-1.8,9.6c-1.2,2.8-2.9,5.1-5,7c-2.1,1.9-4.6,3.4-7.5,4.3c-2.9,1-6,1.4-9.4,1.4h-33
		v-75.9h31.4c4,0,7.5,0.5,10.4,1.6c3,1.1,5.5,2.6,7.6,4.5c2.1,1.9,3.6,4.2,4.6,6.9c1,2.7,1.5,5.7,1.5,8.9c0,2.1-0.3,4-1,5.8
		c-0.6,1.7-1.4,3.2-2.3,4.4c-0.9,1.2-1.8,2.3-2.8,3c-1,0.8-1.7,1.4-2.3,1.8c0.8,0.5,1.7,1.1,2.8,1.9c1.1,0.8,2.1,1.8,3.1,3.1
		c1,1.3,1.8,2.8,2.5,4.7C228.8,501,229.1,503.2,229.1,505.9z M209.4,475.4c0-1.5-0.5-2.9-1.4-4.2c-1-1.3-2.7-2-5.3-2h-11.6v12.4
		h11.6c2.6,0,4.3-0.7,5.3-2C208.9,478.2,209.4,476.8,209.4,475.4z M210.5,504.9c0-1.6-0.5-3.1-1.5-4.5c-1-1.4-2.8-2.1-5.3-2.1h-12.6
		v13.3h12.6c2.6,0,4.3-0.7,5.3-2.1C210,508,210.5,506.5,210.5,504.9z"/>
	<path class="st3" d="M268.1,528.3v-4.7c-1.8,1.8-3.9,3.1-6.3,4c-2.4,0.9-4.8,1.3-7,1.3c-2.7,0-5.1-0.4-7.3-1.3
		c-2.2-0.9-4-2.1-5.6-3.6c-2.5-2.5-4.1-5.1-4.7-7.8c-0.7-2.7-1-5.6-1-8.6V471h17.5v34.3c0,1.6,0.2,3,0.7,4c0.5,1,1.1,1.8,1.9,2.4
		c0.7,0.6,1.5,1,2.3,1.2c0.8,0.2,1.5,0.3,2.1,0.3c0.6,0,1.3-0.1,2.1-0.3c0.8-0.2,1.6-0.6,2.3-1.2c0.7-0.6,1.4-1.4,1.9-2.4
		c0.5-1,0.7-2.4,0.7-4V471h17.5v57.3H268.1z"/>
	<path class="st3" d="M319.4,535.1c-1.1,3.2-2.6,5.7-4.5,7.6c-1.7,1.8-3.6,3.1-5.8,3.8c-2.2,0.7-4.5,1-7.1,1h-6.6v-15.8h3.7
		c1.6,0,2.8-0.3,3.7-0.8c0.9-0.5,1.6-1.7,2.2-3.5l1.6-4.8L287.5,471h18.3l9.7,29.7l9.3-29.7h18.3L319.4,535.1z"/>
</g>
<g>
	<path class="st3" d="M349.8,372.3c-17.1-9-38.5-3.3-48.8,13.1c-9.3,14.8-7.1,33.8,4.7,45.5c12.3,12.3,3.4,22.5,3.4,22.5
		s19.7-1.5,30.2-5.4c17.6-6.6,25.4-20.8,28.4-31.1C372.7,399.9,366.2,381,349.8,372.3z"/>
	<g>
		<linearGradient id="SVGID_2_" gradientUnits="userSpaceOnUse" x1="308.0211" y1="399.6335" x2="355.5427" y2="399.6335">
			<stop  offset="0" style="stop-color:#FF4000"/>
			<stop  offset="1" style="stop-color:#F0047F"/>
		</linearGradient>
		<path class="st4" d="M333.6,416.7c-4.3,0-8.7,0-13,0c-1.9,0-2.9-0.9-3.2-2.8c-1-7.7-2.1-15.4-3.1-23.2c-0.1-1-0.5-1.8-1.6-2.3
			c-3.8-1.9,0.5,0.5-3.3-1.4c-1.4-0.7-1.9-2-1.3-3.3c0.6-1.2,2-1.6,3.4-0.9c4.6,2.3,1,0.3,5.6,2.6c1,0.5,1.5,1.2,1.6,2.4
			c0.1,1.5,0.4,3.1,0.6,4.6c0.1,0.9,0.4,1.2,1.3,1.2c10.2,0,20.4,0,30.6,0c0.3,0,0.6,0,0.9,0c2.8,0,3.8,1.3,2.9,4
			c-1.9,5.7-3.8,11.4-5.8,17.1c-0.5,1.4-1.3,2-2.9,2C342.3,416.7,338,416.7,333.6,416.7z M347.3,407c-0.5,0-0.8-0.1-1.1-0.1
			c-2.7,0-5.5,0-8.2,0c-3.1,0-6.2,0-9.4,0c-1.2,0-2.1-0.7-2.2-1.8c-0.1-1.3,0.7-2.2,2.2-2.2c3.4,0,6.9,0,10.3,0c2.9,0,5.9,0,8.8,0
			c0.3,0,0.8-0.2,0.9-0.4c0.5-1.4,0.9-2.9,1.3-4.4c-10,0-19.8,0-29.7,0c0.6,4.5,1.1,9,1.7,13.4c2.1,0,4.1,0,6.1,0c5.7,0,11.4,0,17,0
			c0.7,0,1-0.2,1.1-0.8C346.5,409.5,346.9,408.4,347.3,407z"/>
		<linearGradient id="SVGID_3_" gradientUnits="userSpaceOnUse" x1="318.55" y1="422.804" x2="327.4339" y2="422.804">
			<stop  offset="0" style="stop-color:#FF4000"/>
			<stop  offset="1" style="stop-color:#F0047F"/>
		</linearGradient>
		<path class="st5" d="M327.4,422.8c0,2.4-2,4.4-4.5,4.4c-2.4,0-4.4-2-4.4-4.5c0-2.5,2-4.5,4.5-4.4
			C325.5,418.4,327.4,420.4,327.4,422.8z"/>
		<linearGradient id="SVGID_4_" gradientUnits="userSpaceOnUse" x1="336.7982" y1="422.803" x2="345.6762" y2="422.803">
			<stop  offset="0" style="stop-color:#FF4000"/>
			<stop  offset="1" style="stop-color:#F0047F"/>
		</linearGradient>
		<path class="st6" d="M345.7,422.8c0,2.5-2,4.4-4.5,4.4c-2.4,0-4.4-2.1-4.4-4.5c0-2.4,2.1-4.5,4.5-4.4
			C343.8,418.4,345.7,420.4,345.7,422.8z"/>
	</g>
</g>
<g>
	<path class="st3" d="M656.9,361.5c-36.9-19.5-83.1-7.1-105.3,28.2c-20.1,32-15.3,72.9,10.1,98.2c26.6,26.6,7.4,48.6,7.4,48.6
		s42.5-3.1,65.1-11.6c38-14.2,54.7-45,61.3-67.2C706.4,421.1,692.4,380.3,656.9,361.5z"/>
	<g>
		<linearGradient id="SVGID_5_" gradientUnits="userSpaceOnUse" x1="566.7379" y1="420.5747" x2="669.3168" y2="420.5747">
			<stop  offset="0" style="stop-color:#FF4000"/>
			<stop  offset="1" style="stop-color:#F0047F"/>
		</linearGradient>
		<path class="st7" d="M622,457.5c-9.3,0-18.7,0-28,0c-4.1,0-6.3-1.9-6.9-6c-2.2-16.7-4.4-33.3-6.6-50c-0.3-2.3-1.2-3.8-3.4-4.9
			c-8.3-4,1.1,1.1-7.1-3c-3-1.5-4.1-4.4-2.8-7.1c1.3-2.7,4.4-3.5,7.4-2c9.9,5,2.2,0.7,12.1,5.6c2.1,1.1,3.3,2.7,3.5,5.1
			c0.3,3.3,0.9,6.6,1.2,9.9c0.2,1.9,0.8,2.6,2.9,2.6c22-0.1,44-0.1,66-0.1c0.6,0,1.2,0,1.8,0c6,0,8.2,2.8,6.3,8.6
			c-4,12.4-8.2,24.7-12.4,37c-1.1,3.1-2.9,4.3-6.2,4.3C640.7,457.5,631.4,457.5,622,457.5z M651.5,436.5c-1,0-1.7-0.1-2.5-0.1
			c-5.9,0-11.9,0-17.8,0c-6.7,0-13.5,0-20.2,0c-2.7,0-4.4-1.5-4.7-3.9c-0.3-2.9,1.6-4.8,4.7-4.9c7.4,0,14.8,0,22.3,0
			c6.3,0,12.7,0,19,0c0.7,0,1.8-0.4,2-0.8c1.1-3.1,1.9-6.3,2.9-9.6c-21.5,0-42.7,0-64.1,0c1.2,9.8,2.4,19.3,3.7,29
			c4.6,0,8.9,0,13.3,0c12.3,0,24.5,0,36.8,0c1.4,0,2.1-0.4,2.4-1.8C649.8,441.9,650.6,439.4,651.5,436.5z"/>
		<linearGradient id="SVGID_6_" gradientUnits="userSpaceOnUse" x1="589.4653" y1="470.59" x2="608.6418" y2="470.59">
			<stop  offset="0" style="stop-color:#FF4000"/>
			<stop  offset="1" style="stop-color:#F0047F"/>
		</linearGradient>
		<path class="st8" d="M608.6,470.7c0,5.3-4.4,9.6-9.7,9.6c-5.2,0-9.5-4.4-9.5-9.7c0.1-5.3,4.4-9.6,9.6-9.6
			C604.4,461,608.7,465.4,608.6,470.7z"/>
		<linearGradient id="SVGID_7_" gradientUnits="userSpaceOnUse" x1="628.8553" y1="470.588" x2="648.0194" y2="470.588">
			<stop  offset="0" style="stop-color:#FF4000"/>
			<stop  offset="1" style="stop-color:#F0047F"/>
		</linearGradient>
		<path class="st9" d="M648,470.7c0,5.3-4.4,9.6-9.7,9.5c-5.3-0.1-9.6-4.5-9.5-9.7c0.1-5.3,4.5-9.6,9.7-9.5
			C643.9,461.1,648.1,465.3,648,470.7z"/>
	</g>
</g>
<g>
	<path class="st3" d="M148.6,527.5l-7-8.5c-0.7,0.7-1.7,1.5-3,2.6c-1.3,1.1-2.8,2-4.7,3c-1.9,0.9-4,1.8-6.5,2.5
		c-2.4,0.7-5.1,1.1-8.1,1.1c-3.3,0-6.4-0.5-9.1-1.5c-2.7-1-5.1-2.4-7.1-4.2c-2-1.8-3.5-4-4.6-6.6c-1.1-2.5-1.6-5.3-1.6-8.4
		c0-2.8,0.5-5.4,1.4-7.5c0.9-2.2,2.1-4.1,3.7-5.8c1.6-1.7,3.3-3.3,5.3-4.8c2-1.5,4-2.9,6.2-4.3c-0.9-1.2-1.9-2.3-2.9-3.6
		c-1-1.2-1.8-2.5-2.6-3.8c-0.7-1.3-1.4-2.7-1.8-4.2c-0.5-1.5-0.7-3-0.7-4.5c0-2,0.4-3.9,1.2-5.7c0.8-1.8,1.8-3.3,3.1-4.6
		c1.3-1.3,2.9-2.3,4.7-3c1.8-0.7,3.7-1.1,5.7-1.1s3.9,0.4,5.7,1.1c1.8,0.7,3.4,1.8,4.7,3.1c1.3,1.3,2.4,2.9,3.1,4.6
		c0.8,1.8,1.2,3.7,1.2,5.7c0,3-0.8,5.5-2.4,7.6c-1.6,2.1-3.6,3.9-5.9,5.4c-0.1,0.1-0.4,0.3-1,0.7c-0.6,0.4-1.4,0.9-2.2,1.5
		c-0.9,0.6-1.6,1.1-2.1,1.4l20.7,25.1c0.8-1.2,1.5-2.4,2-3.6c0.5-1.2,1-2.4,1.3-3.8c0.3-1.4,0.6-2.9,0.7-4.6c0.1-1.7,0.2-3.7,0.2-6
		h5.4c0,4.5-0.5,8.6-1.4,12.3c-0.9,3.7-2.6,6.9-4.9,9.8l10.4,12.6H148.6z M116.6,488.7c-1.7,1.2-3.4,2.3-5.1,3.6
		c-1.7,1.2-3.2,2.5-4.6,4c-1.4,1.4-2.5,3-3.3,4.8c-0.8,1.8-1.3,3.8-1.3,6.1c0,2.4,0.4,4.5,1.2,6.5c0.8,2,2,3.7,3.5,5.1
		c1.5,1.4,3.3,2.5,5.3,3.3c2.1,0.8,4.4,1.2,6.9,1.2c2.9,0,5.9-0.5,9.1-1.6c3.1-1,6.6-3.2,10.2-6.5L116.6,488.7z M126.8,462.2
		c-1.8-1.8-4-2.7-6.7-2.7c-2.6,0-4.8,0.9-6.6,2.6c-1.8,1.8-2.6,4-2.6,6.7c0,0.9,0.1,1.8,0.3,2.7c0.2,0.8,0.6,1.8,1.1,2.8
		c0.5,1,1.3,2.2,2.2,3.4c0.9,1.3,2.1,2.7,3.5,4.4c0.4-0.3,1-0.6,1.7-1.1c0.7-0.5,1.3-0.9,1.7-1.2c0.4-0.3,0.7-0.5,0.8-0.6
		c1.9-1.3,3.6-2.7,5.1-4.3c1.5-1.6,2.2-3.5,2.2-5.9C129.5,466.3,128.6,464,126.8,462.2z"/>
</g>
<g>
	<linearGradient id="SVGID_8_" gradientUnits="userSpaceOnUse" x1="481.477" y1="118.0608" x2="559.603" y2="118.0608">
		<stop  offset="0" style="stop-color:#FF4000"/>
		<stop  offset="1" style="stop-color:#F0047F"/>
	</linearGradient>
	<path class="st10" d="M539,77.6c-18-9.5-40.6-3.5-51.4,13.8c-9.8,15.6-7.5,35.6,4.9,48c13,13,3.6,23.7,3.6,23.7s20.8-1.5,31.8-5.7
		c18.6-7,26.7-22,29.9-32.8C563.1,106.7,556.3,86.8,539,77.6z"/>
	<g>
		<path class="st3" d="M522,124.5c-4.6,0-9.1,0-13.7,0c-2,0-3.1-0.9-3.4-2.9c-1.1-8.1-2.2-16.3-3.2-24.4c-0.1-1.1-0.6-1.9-1.7-2.4
			c-4-2,0.6,0.6-3.4-1.5c-1.5-0.8-2-2.2-1.4-3.5c0.7-1.3,2.1-1.7,3.6-1c4.8,2.4,1.1,0.3,5.9,2.8c1,0.5,1.6,1.3,1.7,2.5
			c0.2,1.6,0.5,3.2,0.6,4.9c0.1,0.9,0.4,1.3,1.4,1.2c10.8,0,21.5,0,32.3,0c0.3,0,0.6,0,0.9,0c2.9,0,4,1.4,3.1,4.2
			c-2,6-4,12-6.1,18.1c-0.5,1.5-1.4,2.1-3,2.1C531.1,124.5,526.5,124.5,522,124.5z M536.3,114.2c-0.5,0-0.8-0.1-1.2-0.1
			c-2.9,0-5.8,0-8.7,0c-3.3,0-6.6,0-9.9,0c-1.3,0-2.2-0.7-2.3-1.9c-0.1-1.4,0.8-2.4,2.3-2.4c3.6,0,7.3,0,10.9,0c3.1,0,6.2,0,9.3,0
			c0.3,0,0.9-0.2,1-0.4c0.5-1.5,0.9-3.1,1.4-4.7c-10.5,0-20.9,0-31.3,0c0.6,4.8,1.2,9.4,1.8,14.2c2.2,0,4.3,0,6.5,0c6,0,12,0,18,0
			c0.7,0,1-0.2,1.2-0.9C535.5,116.9,535.9,115.6,536.3,114.2z"/>
		<path class="st3" d="M515.4,130.9c0,2.6-2.1,4.7-4.7,4.7c-2.6,0-4.7-2.1-4.6-4.7c0-2.6,2.1-4.7,4.7-4.7
			C513.4,126.2,515.4,128.3,515.4,130.9z"/>
		<path class="st3" d="M534.7,130.9c0,2.6-2.1,4.7-4.7,4.7c-2.6,0-4.7-2.2-4.6-4.8c0-2.6,2.2-4.7,4.7-4.7
			C532.7,126.2,534.7,128.3,534.7,130.9z"/>
	</g>
</g>
</svg>
