<?xml version="1.0" encoding="UTF-8"?>
<!DOCTYPE svg PUBLIC "-//W3C//DTD SVG 1.1//EN" "http://www.w3.org/Graphics/SVG/1.1/DTD/svg11.dtd">
<!-- Creator: CorelDRAW 2018 (64 Bit Versão de avaliação) -->
<svg xmlns="http://www.w3.org/2000/svg" xml:space="preserve" width="310px" height="350px" version="1.1" style="shape-rendering:geometricPrecision; text-rendering:geometricPrecision; image-rendering:optimizeQuality; fill-rule:evenodd; clip-rule:evenodd"
viewBox="0 0 310 350"
 xmlns:xlink="http://www.w3.org/1999/xlink">
 <defs>
  <style type="text/css">
   <![CDATA[
    .fil4 {fill:#00645F}
    .fil3 {fill:#00ADA4}
    .fil0 {fill:#00AFA6}
    .fil1 {fill:#00B0A6}
    .fil2 {fill:#663333}
   ]]>
  </style>
 </defs>
 <g id="Camada_x0020_1">
  <metadata id="CorelCorpID_0Corel-Layer"/>
  <g id="_2457470928032">
   <path class="fil0" d="M143.04 103.87c0.02,-11.86 -4.73,-6.76 -2.09,-16.91 8.03,-2.57 11.81,-0.74 15.66,5.46 -0.31,9.18 -4.1,2.43 -4.62,17.25 -0.26,7.6 -1.08,11.1 -1.94,17.54 -5.21,39.49 -17.12,64.78 -62.24,42.24 -31.88,-15.92 -37.31,-44.41 -44.62,-77.8 -2.34,-10.65 -1.87,-18.05 -5.48,-34.84 -1.55,-7.17 6.67,-8.19 12.27,-5.16 10.03,5.42 2.53,9.86 1.06,13.11 -1.44,3.18 2,29.71 3.19,35.04 4.44,19.95 10.59,42.75 25.67,54.71 14.29,11.33 43.39,24.51 54.03,0.74 3.87,-8.65 9.09,-39.58 9.11,-51.38zm-128.51 159.22l171.41 76.41 -0.32 -248.83 -168.65 -55.39 -2.44 227.81z"/>
   <path class="fil1" d="M192.14 108.26l1.84 229.16c7.4,-0.27 37.29,-20.25 45.16,-25.29 20.16,-12.9 38.45,-6.85 56.33,-13.77l-25.04 -235c-11.15,-0.76 -44.04,4.3 -51.83,9.18 -6.13,3.84 -12.57,8.56 -18.22,12.03 -11.82,7.24 -8.26,8.33 -8.24,23.69z"/>
   <path class="fil0" d="M261.53 58.1l-1.51 -5.57 -167.28 -42.03 -0.38 43.03c9.26,5.97 69.21,23.97 85.08,29.26 13.28,4.42 12.74,1.87 36.71,-14.69 9.16,-6.33 32.79,-10.97 47.38,-10z"/>
   <path class="fil2" d="M156.61 92.42c-3.85,-6.2 -7.63,-8.03 -15.66,-5.46 -2.64,10.15 2.11,5.05 2.09,16.91 -0.02,11.8 -5.24,42.73 -9.11,51.38 -10.64,23.77 -39.74,10.59 -54.03,-0.74 -15.08,-11.96 -21.23,-34.76 -25.67,-54.71 -1.19,-5.33 -4.63,-31.86 -3.19,-35.04 1.47,-3.25 8.97,-7.69 -1.06,-13.11 -5.6,-3.03 -13.82,-2.01 -12.27,5.16 3.61,16.79 3.14,24.19 5.48,34.84 7.31,33.39 12.74,61.88 44.62,77.8 45.12,22.54 57.03,-2.75 62.24,-42.24 0.86,-6.44 1.68,-9.94 1.94,-17.54 0.52,-14.82 4.31,-8.07 4.62,-17.25z"/>
   <path class="fil3" d="M31.25 34.81c3.64,2.64 49.91,16.73 55.57,17.29l0.97 -39.77c-11.43,5.05 -2,13.81 -23.55,16.85 -3.68,0.52 -31.21,4.79 -32.99,5.63z"/>
   <path class="fil4" d="M261.53 58.1c4,-0.15 -1.6,1.21 2.77,-0.2 3.17,-1.02 1.93,-0.7 3.12,-1.48 -1.86,-4.73 -0.72,-3.49 -7.4,-3.89l1.51 5.57z"/>
  </g>
 </g>
</svg>
